<svg width="487" height="257" viewBox="0 0 487 257" fill="none" xmlns="http://www.w3.org/2000/svg">
<path d="M255.744 0L0 255.744L0.524987 256.275L256.269 0.530991L255.744 0ZM266.243 0L10.4997 255.744L11.0247 256.275L266.768 0.530991L266.243 0ZM276.743 0L20.9995 255.744L21.5245 256.275L277.268 0.530991L276.743 0ZM287.243 0L31.4992 255.744L32.0242 256.275L287.768 0.530991L287.243 0ZM297.743 0L41.999 255.744L42.5239 256.275L298.268 0.530991L297.743 0ZM308.242 0L52.4987 255.744L53.0237 256.275L308.767 0.530991L308.242 0ZM318.742 0L62.9984 255.744L63.5234 256.275L319.267 0.530991L318.742 0ZM329.242 0L73.4982 255.744L74.0232 256.275L329.767 0.530991L329.242 0ZM339.742 0L83.9979 255.744L84.5229 256.275L340.267 0.530991L339.742 0ZM350.241 0L94.4977 255.744L95.0226 256.275L350.766 0.530991L350.241 0ZM360.741 0L104.997 255.744L105.522 256.275L361.266 0.530991L360.741 0ZM371.241 0L115.497 255.744L116.022 256.275L371.766 0.530991L371.241 0ZM381.741 0L125.997 255.744L126.522 256.275L382.265 0.530991L381.741 0ZM392.24 0L136.497 255.744L137.022 256.275L392.765 0.530991L392.24 0ZM402.74 0L146.996 255.744L147.521 256.275L403.265 0.530991L402.74 0ZM413.24 0L157.496 255.744L158.021 256.275L413.765 0.530991L413.24 0ZM423.739 0L167.996 255.744L168.521 256.275L424.264 0.530991L423.739 0ZM434.239 0L178.496 255.744L179.021 256.275L434.764 0.530991L434.239 0ZM444.739 0L188.995 255.744L189.52 256.275L445.264 0.530991L444.739 0ZM455.239 0L199.495 255.744L200.02 256.275L455.764 0.530991L455.239 0ZM465.738 0L209.995 255.744L210.52 256.275L466.263 0.530991L465.738 0ZM476.238 0L220.495 255.744L221.02 256.275L476.763 0.530991L476.238 0ZM486.738 0L230.994 255.744L231.519 256.275L487.263 0.530991L486.738 0ZM497.238 0L241.494 255.744L242.019 256.275L497.763 0.530991L497.238 0ZM507.737 0L251.994 255.744L252.519 256.275L508.262 0.530991L507.737 0ZM518.237 0L262.493 255.744L263.018 256.275L518.762 0.530991L518.237 0ZM528.737 0L272.993 255.744L273.518 256.275L529.262 0.530991L528.737 0ZM539.237 0L283.493 255.744L284.018 256.275L539.762 0.530991L539.237 0ZM549.736 0L293.993 255.744L294.518 256.275L550.261 0.530991L549.736 0ZM560.236 0L304.492 255.744L305.017 256.275L560.761 0.530991L560.236 0ZM570.736 0L314.992 255.744L315.517 256.275L571.261 0.530991L570.736 0ZM581.236 0L325.492 255.744L326.017 256.275L581.76 0.530991L581.236 0ZM591.735 0L335.992 255.744L336.517 256.275L592.26 0.530991" fill="white"/>
</svg>
