<svg width="36" height="57" viewBox="0 0 36 57" fill="none" xmlns="http://www.w3.org/2000/svg">
<path d="M18.6211 0H36.0004C36.0004 4.73896 32.1587 8.58065 27.4198 8.58065H18.6211V0Z" fill="#FF238B"/>
<mask id="path-2-inside-1" fill="white">
<ellipse cx="18.9313" cy="16.8548" rx="17.069" ry="16.8548"/>
</mask>
<path d="M11.0002 16.8548C11.0002 12.0598 14.8496 8.70968 18.9313 8.70968V58.7097C41.8668 58.7097 61.0002 40.2672 61.0002 16.8548H11.0002ZM18.9313 8.70968C23.013 8.70968 26.8623 12.0598 26.8623 16.8548H-23.1377C-23.1377 40.2672 -4.0043 58.7097 18.9313 58.7097V8.70968ZM26.8623 16.8548C26.8623 21.6499 23.013 25 18.9313 25V-25C-4.0043 -25 -23.1377 -6.55755 -23.1377 16.8548H26.8623ZM18.9313 25C14.8496 25 11.0002 21.6499 11.0002 16.8548H61.0002C61.0002 -6.55755 41.8668 -25 18.9313 -25V25Z" fill="white" mask="url(#path-2-inside-1)"/>
<path d="M36 41.6583C36 44.0383 34.0706 45.9677 31.6906 45.9677H13.4935C10.7245 45.9677 8.68072 43.3836 9.31862 40.6891C9.77676 38.7538 11.5048 37.3871 13.4935 37.3871H31.7288C34.0877 37.3871 36 39.2994 36 41.6583Z" fill="white"/>
<path fill-rule="evenodd" clip-rule="evenodd" d="M8.35196 38C8.35196 37.6615 8.62635 37.3871 8.96484 37.3871H19.9046C20.2431 37.3871 20.5175 37.6616 20.5175 38C20.5175 38.3385 20.2431 38.613 19.9046 38.613H19.4713C19.1328 38.613 18.8584 38.8873 18.8584 39.2258C18.8584 39.5643 18.584 39.8387 18.2455 39.8387H7.30577C6.96728 39.8387 6.69287 39.5643 6.69287 39.2258C6.69287 38.8873 6.96728 38.6129 7.30577 38.6129H7.73908C8.07756 38.6129 8.35196 38.3385 8.35196 38ZM19.9047 41.0645C20.2432 41.0645 20.5176 40.7901 20.5176 40.4516C20.5176 40.1131 20.2432 39.8387 19.9047 39.8387H8.96495C8.62646 39.8387 8.35205 40.1131 8.35205 40.4516C8.35205 40.7901 8.07764 41.0645 7.73915 41.0645L6.19982 41.0645C5.86132 41.0645 5.58691 41.3389 5.58691 41.6774V41.7373C5.58691 42.0427 5.83449 42.2903 6.13989 42.2903C6.44529 42.2903 6.69287 42.5379 6.69287 42.8433V42.9632C6.69287 43.2686 6.94045 43.5161 7.24585 43.5161C7.55125 43.5161 7.79883 43.7637 7.79883 44.0691V44.129C7.79883 44.4675 7.52442 44.7419 7.18592 44.7419L6.19982 44.7419C5.86132 44.7419 5.58691 45.0163 5.58691 45.3548C5.58691 45.6933 5.86132 45.9677 6.19982 45.9677H17.1395C17.478 45.9677 17.7524 45.6933 17.7524 45.3548C17.7524 45.0163 18.0268 44.7419 18.3653 44.7419L19.3514 44.7419C19.6899 44.7419 19.9643 44.4675 19.9643 44.129V44.0691C19.9643 43.7637 19.7168 43.5161 19.4114 43.5161C19.106 43.5161 18.8584 43.2686 18.8584 42.9632V42.8433C18.8584 42.5379 18.6108 42.2903 18.3054 42.2903C18 42.2903 17.7524 42.0427 17.7524 41.7373V41.6774C17.7524 41.3389 18.0268 41.0645 18.3653 41.0645L19.9047 41.0645Z" fill="white"/>
<ellipse cx="4.3453" cy="45.3549" rx="0.62069" ry="0.612903" fill="white"/>
<ellipse cx="5.58651" cy="39.2258" rx="0.62069" ry="0.612903" fill="white"/>
<ellipse cx="4.3453" cy="41.6774" rx="0.62069" ry="0.612903" fill="white"/>
<path d="M36 52.6283C36 55.0427 34.0427 57 31.6283 57H10.5303C7.71745 57 5.66558 54.3386 6.38113 51.6183C6.87696 49.7333 8.58117 48.4194 10.5303 48.4194H31.791C34.1156 48.4194 36 50.3038 36 52.6283Z" fill="white"/>
<path fill-rule="evenodd" clip-rule="evenodd" d="M4.96603 49.0323C4.96603 48.6938 5.24043 48.4194 5.57891 48.4194H18.0083C18.3468 48.4194 18.6212 48.6938 18.6212 49.0323C18.6212 49.3708 18.3468 49.6452 18.0083 49.6452H17.372C17.0336 49.6452 16.7592 49.9196 16.7592 50.2581C16.7592 50.5966 16.4848 50.871 16.1463 50.871H3.71691C3.37841 50.871 3.104 50.5965 3.104 50.2581C3.104 49.9196 3.37841 49.6451 3.71691 49.6451H4.35316C4.69164 49.6451 4.96603 49.3708 4.96603 49.0323ZM18.0081 52.0968C18.3466 52.0968 18.621 51.8224 18.621 51.4839C18.621 51.1454 18.3466 50.871 18.0081 50.871H5.57872C5.24023 50.871 4.96582 51.1454 4.96582 51.4839C4.96582 51.8224 4.69141 52.0968 4.35292 52.0968L2.47521 52.0968C2.13671 52.0968 1.8623 52.3712 1.8623 52.7097C1.8623 53.0482 2.13671 53.3226 2.47521 53.3226H14.9046C15.2431 53.3226 15.5175 53.0482 15.5175 52.7097C15.5175 52.3712 15.7919 52.0968 16.1304 52.0968L18.0081 52.0968ZM17.3721 54.5484C17.0336 54.5484 16.7592 54.274 16.7592 53.9355C16.7592 53.597 16.4848 53.3226 16.1463 53.3226H3.71691C3.37841 53.3226 3.104 53.597 3.104 53.9355C3.104 54.274 3.37841 54.5484 3.71691 54.5484L3.73231 54.5484C4.07081 54.5484 4.34521 54.8228 4.34521 55.1613C4.34521 55.4998 4.07081 55.7742 3.73231 55.7742L2.47521 55.7742C2.13671 55.7742 1.8623 56.0486 1.8623 56.3871C1.8623 56.7256 2.13671 57 2.47521 57H14.9046C15.2431 57 15.5175 56.7256 15.5175 56.3871C15.5175 56.0486 15.7919 55.7742 16.1304 55.7742L17.3875 55.7742C17.726 55.7742 18.0004 55.4998 18.0004 55.1613C18.0004 54.8228 17.726 54.5484 17.3875 54.5484L17.3721 54.5484Z" fill="white"/>
<ellipse cx="0.62069" cy="56.387" rx="0.62069" ry="0.612903" fill="white"/>
<ellipse cx="1.8619" cy="50.258" rx="0.62069" ry="0.612903" fill="white"/>
<ellipse cx="0.62069" cy="52.7096" rx="0.62069" ry="0.612903" fill="white"/>
</svg>
