<svg width="40" height="40" viewBox="0 0 40 40" fill="none" xmlns="http://www.w3.org/2000/svg">
<circle cx="20" cy="20" r="19.5" stroke="#FF238B"/>
<path d="M30 13.9242C29.2642 14.2508 28.4733 14.4708 27.6433 14.57C28.4908 14.0625 29.1417 13.2583 29.4475 12.3C28.655 12.77 27.7767 13.1117 26.8417 13.2958C26.0942 12.4983 25.0267 12 23.8467 12C21.1975 12 19.2508 14.4717 19.8492 17.0375C16.44 16.8667 13.4167 15.2333 11.3925 12.7508C10.3175 14.595 10.835 17.0075 12.6617 18.2292C11.99 18.2075 11.3567 18.0233 10.8042 17.7158C10.7592 19.6167 12.1217 21.395 14.095 21.7908C13.5175 21.9475 12.885 21.9842 12.2417 21.8608C12.7633 23.4908 14.2783 24.6767 16.075 24.71C14.35 26.0625 12.1767 26.6667 10 26.41C11.8158 27.5742 13.9733 28.2533 16.29 28.2533C23.9083 28.2533 28.2125 21.8192 27.9525 16.0483C28.7542 15.4692 29.45 14.7467 30 13.9242V13.9242Z" fill="#FF238B"/>
</svg>
